<?xml version="1.0" encoding="UTF-8" standalone="no"?>
<!-- Created with Inkscape (http://www.inkscape.org/) -->

<svg
   xmlns:dc="http://purl.org/dc/elements/1.1/"
   xmlns:cc="http://creativecommons.org/ns#"
   xmlns:rdf="http://www.w3.org/1999/02/22-rdf-syntax-ns#"
   xmlns:svg="http://www.w3.org/2000/svg"
   xmlns="http://www.w3.org/2000/svg"
   xmlns:sodipodi="http://sodipodi.sourceforge.net/DTD/sodipodi-0.dtd"
   xmlns:inkscape="http://www.inkscape.org/namespaces/inkscape"
   width="35mm"
   height="35mm"
   viewBox="0 0 35 35"
   version="1.1"
   id="svg8"
   inkscape:version="0.92.3 (unknown)"
   sodipodi:docname="tubeSlit.svg">
  <defs
     id="defs2" />
  <sodipodi:namedview
     id="base"
     pagecolor="#ffffff"
     bordercolor="#666666"
     borderopacity="1.0"
     inkscape:pageopacity="0.0"
     inkscape:pageshadow="2"
     inkscape:zoom="2.56"
     inkscape:cx="81.219301"
     inkscape:cy="73.68563"
     inkscape:document-units="mm"
     inkscape:current-layer="layer1"
     showgrid="false"
     showguides="true"
     inkscape:guide-bbox="true"
     inkscape:window-width="1855"
     inkscape:window-height="1056"
     inkscape:window-x="65"
     inkscape:window-y="24"
     inkscape:window-maximized="1" />
  <metadata
     id="metadata5">
    <rdf:RDF>
      <cc:Work
         rdf:about="">
        <dc:format>image/svg+xml</dc:format>
        <dc:type
           rdf:resource="http://purl.org/dc/dcmitype/StillImage" />
        <dc:title></dc:title>
      </cc:Work>
    </rdf:RDF>
  </metadata>
  <g
     inkscape:label="Layer 1"
     inkscape:groupmode="layer"
     id="layer1"
     transform="translate(0,-262)">
    <path
       id="rect3713"
       style="stroke-width:0.04896821"
       d="m 2.5957035,264.7864 v 29.99971 H 12.628166 v -0.005 -0.007 c 0,-0.003 1.1e-5,-0.004 0,-0.006 -10e-6,-0.003 -1.11e-4,-0.004 0,-0.006 4e-5,-0.003 -7.93e-4,-0.006 5.29e-4,-0.009 h 5.3e-4 v -0.003 -0.006 -0.007 -0.006 -0.006 -0.006 -0.006 -0.01 h -5.3e-4 v -25 h 9.999909 v 25 0.003 0.006 0.006 0.006 0.007 c 2.1e-5,0 -1.06e-4,0.004 0,0.004 v 0.007 0.006 0.006 0.006 0.006 c -1.1e-5,0.003 -2.1e-5,0.004 0,0.006 1.8e-5,0.003 4.7e-5,0.004 0,0.006 2.6e-5,0 -5.29e-4,0 -5.29e-4,0 v 0.005 c 2.1e-5,0 1.8e-5,0 0,0 v 0.005 h 9.967867 v -29.99714 z m 10.0484835,29.97645 c 2.9e-5,0 2.4e-5,0.003 0,0.003 2.64e-4,0 7.94e-4,-0.003 0.0011,-0.003 -2.64e-4,5e-5 -7.94e-4,0 -0.0011,0 z"
       inkscape:connector-curvature="0" />
  </g>
</svg>
